<svg width="14" height="22" viewBox="0 0 14 22" fill="none" xmlns="http://www.w3.org/2000/svg">
<path d="M6.17497 18.1184C6.2821 18.2358 6.43425 18.3026 6.5927 18.3026H6.59428C6.75379 18.3024 6.90567 18.2347 7.01227 18.1163L12.9797 11.5171C13.1895 11.2855 13.1713 10.9272 12.9397 10.7175C12.7083 10.5085 12.3504 10.5258 12.1406 10.7577L7.15864 16.2664V0.565916C7.15864 0.253215 6.90517 0 6.59273 0C6.28029 0 6.02681 0.253215 6.02681 0.565916V16.2771L0.984074 10.7556C0.772711 10.5248 0.415521 10.5093 0.184429 10.7193C-0.0461523 10.9301 -0.0624718 11.2879 0.148105 11.519L6.17497 18.1184Z" fill="white"/>
<path d="M12.5602 19.875H0.565917C0.253478 19.875 0 20.1282 0 20.4409C0 20.7536 0.253478 21.0068 0.565917 21.0068H12.5602C12.8727 21.0068 13.1262 20.7536 13.1262 20.4409C13.1262 20.1282 12.8729 19.875 12.5605 19.875H12.5602Z" fill="white"/>
</svg>
