<svg width="772" height="414" viewBox="0 0 772 414" fill="none" xmlns="http://www.w3.org/2000/svg">
<g clip-path="url(#clip0_1937_108)">
<rect width="414" height="772" transform="translate(772) rotate(90)" fill="#3BD6FF"/>
<mask id="mask0_1937_108" style="mask-type:alpha" maskUnits="userSpaceOnUse" x="0" y="0" width="772" height="414">
<rect width="772" height="414" fill="url(#paint0_diamond_1937_108)"/>
</mask>
<g mask="url(#mask0_1937_108)">
<path d="M-507.708 335.611C-281.083 165.195 -6.43747 167.262 -6.43747 167.262C-6.43747 167.262 -200.08 261.664 -287.113 490.396C-354.421 409.34 -454.748 348.594 -507.708 335.575M340.456 233.086L216.301 209.295L292.945 73.9127L200.246 55.9971C198.865 55.7432 197.449 56.2147 196.541 57.2664L191.492 62.8877C190.547 63.9031 188.985 64.4109 187.569 64.0845L92.2546 46.4227C90.4384 46.0238 89.5668 48.5624 91.2377 49.3966L184.263 96.0352C185.789 96.7967 187.859 96.3615 189.022 95.0922L197.594 85.5542C198.756 84.2486 200.645 83.8496 202.244 84.575L250.337 106.262L192.364 204.58L43.0721 175.422C17.936 174.806 -127.542 277.186 -91.6171 380.726C80.3041 298.003 278.778 463.269 278.778 463.269C278.778 463.269 233.882 319.835 340.492 233.05M670.387 1133.76L980.993 1243.29C840.964 1412.21 764.72 1295.11 771.585 1438C593.707 1376.89 574.346 1215.03 424.546 1206.98C403.006 1205.21 356.221 1204.08 268.898 1153.74C141.401 1080.27 73.6931 921.24 27.1622 937.161C46.8861 977.889 -27.6507 970.382 -116.281 929.219C-247.52 864.846 -264.773 716.082 -368.224 781.941C-368.224 781.941 -368.551 666.288 -389.909 559.665L-540 359.22L-525.434 347.071C-525.434 347.071 -395.939 513.352 -109.779 716.408L-66.6626 643.513C-75.235 640.285 -155.438 602.096 -186.35 627.519C-259.47 457.901 -103.495 389.249 -103.495 389.249L278.742 463.377C278.742 463.377 134.173 561.079 185.934 735.811C200.682 602.133 312.814 571.487 312.814 571.487L776.562 661.029C442.236 446.223 330.322 558.975 330.322 558.975C330.322 558.975 302.389 363.028 452.152 329.808L837.695 403.465C761.742 360.163 564.43 247.157 466.5 319.327C450.808 303.152 435.552 183.365 578.887 129.69L744.633 161.423L788.694 87.44L741.545 66.1879C739.947 65.4626 738.095 65.8615 736.896 67.1671L728.324 76.7052C727.161 77.9745 725.091 78.3734 723.565 77.6481L630.539 31.0095C628.868 30.1754 629.74 27.673 631.556 28.0357L726.87 45.6974C728.287 45.9875 729.849 45.5161 730.794 44.5006L735.842 38.8793C736.787 37.8276 738.204 37.3561 739.548 37.61L832.355 55.6707L768.861 166.029L913.612 193.773C913.612 193.773 794.142 256.949 838.784 403.719C838.784 403.719 746.268 489.634 777.978 661.319C777.978 661.319 595.668 789.702 666.827 1072.8L1023.38 469.47L974.418 447.384C972.82 446.659 970.967 447.057 969.769 448.363L961.196 457.865C960.034 459.134 957.963 459.533 956.438 458.808L863.412 412.169C861.741 411.335 862.613 408.833 864.429 409.195L959.743 426.857C961.16 427.147 962.722 426.676 963.666 425.66L968.715 420.039C969.66 418.987 971.04 418.516 972.42 418.77L1065.12 436.685L919.896 692.98C919.896 692.98 1217.46 750.389 1224 751.659C983.136 928.204 1054.88 1172.2 1054.88 1172.2L688.767 1101.16L670.205 1133.87L670.387 1133.76ZM321.786 873.623C246.704 852.334 212.887 868.001 199.846 876.343C199.846 876.089 199.919 875.799 199.955 875.545C199.519 874.529 185.753 841.019 183.246 791.697C168.281 779.91 66.8279 702.083 -36.4411 655.843L-81.737 735.955C2.75249 794.054 114.376 864.266 273.184 955.621L321.786 873.623ZM655.639 1091.58C612.958 1050.75 483.427 933.716 355.095 884.829L304.132 973.428C304.132 973.428 367.917 1010.2 423.384 1042.15C451.208 1058.18 491.782 1038.82 521.785 1056.12C561.342 1076.86 639.221 1119.51 639.221 1119.51L655.603 1091.58H655.639Z" fill="url(#paint1_linear_1937_108)"/>
</g>
</g>
<defs>
<radialGradient id="paint0_diamond_1937_108" cx="0" cy="0" r="1" gradientUnits="userSpaceOnUse" gradientTransform="translate(386 207) rotate(-0.742133) scale(386.032 719.848)">
<stop stop-color="white"/>
<stop offset="1" stop-opacity="0"/>
</radialGradient>
<linearGradient id="paint1_linear_1937_108" x1="816.923" y1="733" x2="715.981" y2="-74.4242" gradientUnits="userSpaceOnUse">
<stop stop-color="#3BD6FF" stop-opacity="0"/>
<stop offset="0.960997" stop-color="#E6FF00"/>
</linearGradient>
<clipPath id="clip0_1937_108">
<rect width="414" height="772" fill="white" transform="translate(772) rotate(90)"/>
</clipPath>
</defs>
</svg>
