<svg width="240" height="33" viewBox="0 0 240 33" fill="none" xmlns="http://www.w3.org/2000/svg">
<path d="M166.152 8.31663H166.153C165.821 7.69871 165.518 7.06428 165.249 6.41234L164.084 1.60508C164.055 1.14777 164.043 0.688466 164.063 0.225152C164.066 0.157607 164.067 0.0895606 164.07 0C163.148 0.00500339 162.267 0.132088 161.435 0.567382C161.332 0.620919 161.28 0.689466 161.254 0.818053C161.011 2.01686 161.076 3.21368 161.269 4.40898C161.282 4.48854 161.34 4.56459 161.391 4.62813C161.763 5.09695 162.097 5.59679 162.336 6.17468C162.441 6.42935 162.516 6.68353 162.564 6.9362C162.587 7.27643 162.605 7.61416 162.612 7.94488L162.615 8.62734C162.469 20.7215 151.531 26.4144 146.182 28.4773C146.182 28.4773 145.379 28.7705 145.28 28.8115C142.62 29.9047 146.297 32.0137 146.297 32.0137C157.036 37.2942 177.329 18.7637 166.152 8.31663H166.152ZM161.81 3.28222C161.713 2.65129 161.674 2.01936 161.801 1.38594C161.81 1.3399 161.837 1.27886 161.869 1.26235C162.309 1.0377 162.773 0.952647 163.286 0.953148C163.222 1.37393 163.184 1.7792 163.097 2.16997C162.943 2.86794 162.453 3.27722 161.811 3.28172L161.81 3.28222ZM147.675 29.7041C147.661 29.6426 147.645 29.582 147.624 29.524C152.823 27.33 162.342 21.8953 163.765 11.1521L164.018 11.144C164.137 15.9153 162.575 26.1737 147.675 29.7041Z" fill="white"/>
<path d="M23.1154 9.66461C23.1154 9.66461 19.4032 14.2448 14.3818 14.7496C14.9202 10.042 19.8058 6.5618 19.8058 6.5618V4.70312H5.29225V6.5618C5.29225 6.5618 10.1778 10.042 10.7162 14.7496C5.69481 14.2448 1.98259 9.66461 1.98259 9.66461H0V23.2711H1.98259C1.98259 23.2711 5.69481 18.6908 10.7162 18.1861C10.1778 22.8937 5.29225 26.3739 5.29225 26.3739V28.2325H19.8058V26.3739C19.8058 26.3739 14.9202 22.8937 14.3818 18.1861C19.4032 18.6908 23.1154 23.2711 23.1154 23.2711H25.098V9.66461H23.1154Z" fill="white"/>
<path d="M228.71 13.9425V16.083C228.71 16.6565 228.5 16.9503 228.108 16.9503C227.716 16.9503 227.507 16.6706 227.507 16.1248V13.9425C227.507 13.3967 227.716 13.117 228.108 13.117C228.5 13.117 228.71 13.3967 228.71 13.9425ZM222.287 16.3909C222.651 16.3909 222.847 16.1112 222.847 15.5654V13.9425C222.847 13.3967 222.651 13.117 222.287 13.117C221.924 13.117 221.742 13.3967 221.742 13.9425V15.5654C221.742 16.1112 221.938 16.3909 222.287 16.3909ZM222.287 17.9437C221.896 17.9437 221.686 18.2375 221.686 18.8252V20.5599C221.686 21.1194 221.895 21.4132 222.287 21.4132C222.679 21.4132 222.903 21.1194 222.903 20.5599V18.8252C222.903 18.2375 222.679 17.9437 222.287 17.9437ZM233.036 19.2586V19.3987H234.001L234.099 13.9848H233.959L233.036 19.2591L233.036 19.2586ZM240 17.2583C240 25.0551 233.679 31.3759 225.882 31.3759C218.086 31.3759 211.765 25.0551 211.765 17.2583C211.765 9.46147 218.086 3.14062 225.882 3.14062C233.679 3.14062 240 9.46147 240 17.2583ZM218.869 11.7038H217.358C216.854 12.8091 216.127 13.5227 215.203 13.8861V15.9006C215.889 15.6909 216.406 15.3548 216.77 14.8513H216.91V22.8255H218.869V11.7034V11.7038ZM224.862 19.2864C224.862 18.167 224.247 17.342 223.295 17.2019V17.0618C224.204 16.838 224.806 16.0407 224.806 15.0473V14.1799C224.806 12.5989 223.813 11.5637 222.288 11.5637C220.764 11.5637 219.784 12.5989 219.784 14.1799V15.0473C219.784 16.0407 220.372 16.838 221.281 17.0618V17.2019C220.343 17.342 219.728 18.167 219.728 19.2864V20.2656C219.728 21.9026 220.735 22.9655 222.288 22.9655C223.841 22.9655 224.862 21.9021 224.862 20.2656V19.2864ZM230.669 15.1733C230.669 12.9069 229.718 11.5637 228.123 11.5637C226.529 11.5637 225.577 12.8368 225.577 14.7676V15.8169C225.577 17.4256 226.248 18.4609 227.284 18.4609C227.927 18.4609 228.389 18.1252 228.571 17.5794H228.711V20.4894C228.711 21.0489 228.515 21.3427 228.123 21.3427C227.732 21.3427 227.536 21.0489 227.536 20.4894V18.8525L225.633 18.9644V19.8176C225.633 21.7903 226.556 22.9655 228.137 22.9655C229.718 22.9655 230.669 21.6224 230.669 19.3423V15.1733ZM236.604 20.8951V19.3983H235.905V11.7038H232.883L231.372 19.5102V20.8951H233.974L233.946 22.8259H235.904V20.8951H236.604H236.604Z" fill="white"/>
<path d="M101.362 11.6373C100.474 10.5789 98.6459 10.2509 95.9293 10.6621C91.1765 11.382 88.3271 11.9506 87.165 12.262V11.8674C88.0998 11.5089 88.6815 10.6084 89.3519 9.57047L89.372 9.53909C89.956 8.63477 90.0772 8.44697 91.2991 8.18404C92.7839 7.86501 93.9982 5.39643 94.132 5.1159C94.2216 4.9281 94.1511 4.69845 93.9751 4.60288C93.799 4.50732 93.5837 4.58244 93.4941 4.76977C93.174 5.44064 92.13 7.22647 91.1578 7.43567C89.7166 7.74567 89.4576 8.06089 88.7827 9.10595L88.7626 9.13733C88.1769 10.044 87.7035 10.7767 87.0535 11.0924C86.9809 10.9056 86.8735 10.7334 86.7353 10.5861L85.6957 9.47728C85.6757 9.45589 85.6552 9.43544 85.6342 9.41548C85.7051 9.33132 85.7675 9.23955 85.821 9.14256C86.3956 9.12497 86.857 8.58295 86.857 7.91588C86.857 7.24881 86.3804 6.68872 85.7924 6.68872C85.7773 6.68872 85.7626 6.68872 85.7483 6.68872C85.6231 6.50044 85.463 6.34021 85.278 6.21944C86.5828 4.37371 89.0479 2.26411 89.0738 2.24224C89.228 2.11054 89.2534 1.87043 89.1299 1.70592C89.0069 1.54141 88.7818 1.51431 88.6271 1.64601C88.5148 1.74206 85.8789 3.99763 84.5599 5.97363C84.522 5.97078 84.4837 5.96887 84.4449 5.96887H83.3995C83.3608 5.96887 83.3224 5.97078 83.2845 5.97363C81.9655 3.99715 79.3301 1.74158 79.2173 1.64601C79.0631 1.51479 78.8379 1.54141 78.7145 1.70592C78.591 1.87043 78.6164 2.11054 78.7706 2.24224C78.7965 2.26411 81.2616 4.37419 82.5664 6.21944C82.3814 6.34021 82.2214 6.50044 82.0961 6.68872C82.0818 6.68872 82.068 6.68872 82.0538 6.68872C81.4658 6.68872 80.9892 7.23835 80.9892 7.91588C80.9892 8.59341 81.4497 9.12401 82.0234 9.14256C82.0769 9.23955 82.1393 9.33132 82.2107 9.41548C82.1897 9.43544 82.1692 9.45589 82.1492 9.47728L81.1096 10.5861C80.9714 10.7334 80.864 10.9056 80.7913 11.0924C80.1409 10.7767 79.6675 10.0445 79.0822 9.13733L79.0622 9.10643C78.3873 8.06137 78.1287 7.74614 76.6871 7.43614C75.7144 7.22694 74.6709 5.44064 74.3508 4.77025C74.2612 4.58244 74.0459 4.50779 73.8698 4.60288C73.6937 4.69845 73.6233 4.9281 73.7129 5.1159C73.7258 5.14348 74.0392 5.79676 74.5282 6.49569C75.2147 7.47608 75.8936 8.04425 76.5458 8.18451C77.7676 8.44744 77.8889 8.63525 78.4729 9.53957L78.4929 9.57047C79.1634 10.6084 79.7451 11.5094 80.6799 11.8674V12.262C79.5178 11.9506 76.6688 11.382 71.9155 10.6621C69.1994 10.2509 67.3713 10.5789 66.4825 11.6373C65.8967 12.3348 65.7358 13.3218 66.0171 14.4924C66.4615 16.341 69.9185 19.0915 72.7135 19.2674C73.4757 19.3155 74.0637 19.3316 74.5104 19.3316C74.7284 19.3316 74.9129 19.3278 75.0676 19.3216C74.4145 20.1798 73.807 20.7352 73.2551 20.9777C71.5206 21.7398 69.8815 21.184 69.865 21.1778C69.6778 21.1122 69.4758 21.2201 69.4134 21.4198C69.351 21.62 69.4526 21.8359 69.6403 21.902C69.6858 21.9181 70.3451 22.1449 71.2888 22.1449C71.9365 22.1449 72.7184 22.0379 73.5275 21.6828C74.3798 21.3086 75.2651 20.409 76.2346 18.9337C77.2581 17.3761 79.6408 16.4223 80.9135 16.0058V16.3315C79.8218 16.8873 79.0118 17.6271 78.4524 18.5771C77.8929 19.5266 77.5991 20.6496 77.5274 22.1107C77.4449 23.7948 76.9006 25.476 76.141 26.3936C74.6276 28.2222 71.9949 28.7547 71.9677 28.7604C71.7733 28.798 71.6445 28.9967 71.6802 29.204C71.7114 29.3885 71.862 29.5174 72.0319 29.5174C72.0533 29.5174 72.0747 29.5155 72.0961 29.5112C72.2138 29.4884 74.9967 28.9292 76.6773 26.899C77.5372 25.8601 78.151 23.9968 78.2415 22.1511C78.3066 20.825 78.566 19.8185 79.0577 18.9836C79.3987 18.4045 79.8525 17.9124 80.428 17.5002C80.0683 18.2195 79.6809 19.1676 79.4081 20.3068C78.8995 22.4302 78.932 24.5536 79.5053 26.619C80.2716 29.3814 81.6633 30.5562 82.6957 31.0555C83.1245 31.2628 83.5845 31.3664 84.045 31.3664C84.5055 31.3664 84.9655 31.2628 85.3944 31.0555C86.4268 30.5562 87.8185 29.3814 88.5848 26.6195C89.1576 24.5541 89.1906 22.4307 88.6819 20.3073C88.4475 19.3278 88.1283 18.4905 87.8145 17.8173C88.205 18.1587 88.5273 18.5466 88.7849 18.9841C89.2766 19.819 89.536 20.8255 89.6011 22.1516C89.6916 23.9973 90.3054 25.8611 91.1653 26.8995C92.8459 28.9297 95.6293 29.4888 95.7466 29.5117C95.7679 29.5159 95.7898 29.5178 95.8107 29.5178C95.9801 29.5178 96.1308 29.3885 96.1625 29.2045C96.1977 28.9972 96.0688 28.7985 95.8745 28.7609C95.8482 28.7557 93.2195 28.2284 91.7016 26.3946C90.942 25.4769 90.3982 23.7962 90.3153 22.1116C90.2435 20.6505 89.9497 19.5275 89.3903 18.578C88.8469 17.6552 88.0672 16.9306 87.0219 16.3805C86.9889 16.3301 86.9581 16.2839 86.9292 16.2416V16.0072C88.2019 16.4237 90.5845 17.3775 91.608 18.9351C92.5776 20.4104 93.4633 21.3095 94.3152 21.6842C95.1243 22.0398 95.9057 22.1463 96.5538 22.1463C97.4975 22.1463 98.1568 21.9195 98.2023 21.9034C98.3895 21.8373 98.4907 21.6219 98.4292 21.4222C98.3673 21.2225 98.1649 21.1141 97.9781 21.1793C97.9616 21.185 96.3229 21.7408 94.588 20.9791C94.0366 20.7366 93.429 20.1813 92.7755 19.3231C92.9302 19.3293 93.1143 19.3331 93.3323 19.3331C93.7789 19.3331 94.3669 19.3169 95.1296 19.2689C97.9246 19.093 101.382 16.3424 101.826 14.4938C102.107 13.3233 101.946 12.3362 101.361 11.6387L101.362 11.6373ZM88.2112 24.9149C85.4434 25.3752 82.6498 25.3752 79.8815 24.9149C79.7745 24.1613 79.7424 23.4016 79.7857 22.6384C81.2019 22.8586 82.6243 22.9689 84.0464 22.9689C85.4684 22.9689 86.8908 22.8586 88.3071 22.6384C88.3503 23.4016 88.3182 24.1613 88.2112 24.9149ZM80.2448 19.9569C80.4944 19.0887 80.8051 18.3603 81.0936 17.7935C82.0765 17.8991 83.0616 17.9528 84.0464 17.9528C85.0311 17.9528 86.0162 17.8991 86.9992 17.7935C87.2871 18.3607 87.5983 19.0887 87.8479 19.9569C85.3204 20.3401 82.7728 20.3401 80.2448 19.9569ZM82.7621 8.92623C82.8869 8.75649 82.9506 8.4541 82.9506 7.91588C82.9506 7.46182 82.8976 7.17369 82.7933 6.99158C82.9515 6.83136 83.1651 6.73199 83.4004 6.73199H84.4458C84.6816 6.73199 84.8956 6.83183 85.0538 6.99254C84.9499 7.17464 84.8973 7.46277 84.8973 7.91588C84.8973 8.45315 84.9611 8.75506 85.085 8.9248C85.0444 8.97044 84.999 9.01228 84.9495 9.04889C84.8545 9.02845 84.7569 9.01799 84.658 9.01799H83.1878C83.0888 9.01799 82.9912 9.02845 82.8967 9.04889C82.8477 9.01228 82.8027 8.97092 82.7621 8.92575V8.92623ZM81.3958 11.6929C81.3958 11.4785 81.4742 11.2769 81.616 11.1252L82.6555 10.0164C82.7978 9.86478 82.9868 9.78158 83.1878 9.78158H84.658C84.859 9.78158 85.048 9.86525 85.1902 10.0164L86.2298 11.1252C86.372 11.2769 86.45 11.4785 86.45 11.6929V13.261C86.45 13.4754 86.3715 13.677 86.2293 13.8287L85.1898 14.9374C85.0476 15.0891 84.8586 15.1723 84.6575 15.1723H83.1874C82.9863 15.1723 82.7973 15.0886 82.6551 14.937L81.6156 13.8282C81.4734 13.6765 81.3953 13.4749 81.3953 13.2605V11.6924L81.3958 11.6929ZM85.1006 30.3599C84.4306 30.6837 83.6625 30.6837 82.9925 30.3599C82.2838 30.0171 81.3766 29.2953 80.687 27.7796C81.805 27.916 82.9257 27.985 84.0464 27.985C85.167 27.985 86.2881 27.916 87.4057 27.7796C86.7161 29.2953 85.8094 30.0171 85.1002 30.3599H85.1006ZM83.4566 14.5889V10.365C83.4566 10.2723 83.527 10.1971 83.614 10.1971H84.2327C84.3196 10.1971 84.39 10.2723 84.39 10.365V14.5889C84.39 14.6816 84.3196 14.7568 84.2327 14.7568H83.614C83.527 14.7568 83.4566 14.6816 83.4566 14.5889ZM85.1274 14.0117V10.9422C85.1274 10.7929 85.2968 10.7178 85.3957 10.8238L85.9083 11.3706C86.006 11.4747 86.0608 11.6154 86.0608 11.7628V13.192C86.0608 13.339 86.006 13.4802 85.9083 13.5843L85.3957 14.1311C85.2968 14.2366 85.1274 14.162 85.1274 14.0127V14.0117ZM81.9383 13.5838C81.8407 13.4797 81.7858 13.339 81.7858 13.1916V11.7623C81.7858 11.6154 81.8407 11.4742 81.9383 11.3701L82.4509 10.8233C82.5499 10.7178 82.7193 10.7924 82.7193 10.9417V14.0112C82.7193 14.1605 82.5499 14.2357 82.4509 14.1296L81.9383 13.5829V13.5838Z" fill="white"/>
</svg>
