<svg width="21" height="21" viewBox="0 0 21 21" fill="none" xmlns="http://www.w3.org/2000/svg">
<path d="M18.2083 1.77357H16.9439V3.25404C16.9439 4.06535 16.2864 4.72288 15.4751 4.72288H15.3797C14.5684 4.72288 13.9112 4.06531 13.9112 3.25404V1.77357H5.94748V3.25404C5.94748 4.06535 5.2899 4.72288 4.47896 4.72288H4.38309C3.57179 4.72288 2.91425 4.06531 2.91425 3.25404V1.77389H1.80607C0.80864 1.77358 0 2.58237 0 3.57984V18.294C0 19.2915 0.80864 20.1 1.80595 20.1H16.025L16.226 20.0549C16.2803 20.0299 16.3312 19.9958 16.3748 19.9498L19.6809 16.4705C19.6862 16.4649 19.6921 16.4588 19.6983 16.4525C19.9007 16.2434 20.0144 15.9626 20.0144 15.6717V3.57966C20.0144 2.58224 19.2058 1.77344 18.2082 1.77344L18.2083 1.77357ZM18.9818 15.8063L15.9554 18.9915V16.6013C15.9554 16.1372 16.3329 15.7596 16.7969 15.7596H19.0358C19.0172 15.7744 18.9986 15.7888 18.9818 15.8063ZM19.0501 14.7954H16.7969C15.801 14.7954 14.991 15.6058 14.991 16.6016V19.1358H1.80643C1.34229 19.1358 0.964753 18.7584 0.964753 18.2943V6.81777H19.0501L19.0499 14.7954L19.0501 14.7954Z" fill="#001838"/>
<path d="M4.47855 4.0878C4.94067 4.0878 5.31654 3.71194 5.31654 3.24981V0.837987C5.31654 0.375867 4.94068 0 4.47855 0L4.38315 0.000155122C3.92103 0.000155122 3.54517 0.376173 3.54517 0.838142V3.24981C3.54517 3.71193 3.92118 4.08779 4.38315 4.08779L4.47855 4.0878Z" fill="#001838"/>
<path d="M15.4751 4.0878C15.9373 4.0878 16.3131 3.71194 16.3131 3.24981V0.837987C16.3131 0.375867 15.9373 0 15.4751 0H15.3797C14.9176 0 14.5417 0.376018 14.5417 0.837987L14.5419 3.24981C14.5419 3.71193 14.9178 4.0878 15.3799 4.0878H15.4751Z" fill="#001838"/>
<path d="M3.4563 8.80469H5.14419V10.4926H3.4563V8.80469Z" fill="#001838"/>
<path d="M7.27417 8.80469H8.96206V10.4926H7.27417V8.80469Z" fill="#001838"/>
<path d="M11.0925 8.80469H12.7804V10.4926H11.0925V8.80469Z" fill="#001838"/>
<path d="M14.9104 8.80469H16.5983V10.4926H14.9104V8.80469Z" fill="#001838"/>
<path d="M3.4563 12.0547H5.14419V13.7426H3.4563V12.0547Z" fill="#001838"/>
<path d="M7.27417 12.0547H8.96206V13.7426H7.27417V12.0547Z" fill="#001838"/>
<path d="M11.0925 12.0547H12.7804V13.7426H11.0925V12.0547Z" fill="#001838"/>
<path d="M14.9104 12.0547H16.5983V13.7426H14.9104V12.0547Z" fill="#001838"/>
<path d="M3.4563 15.3125H5.14419V17.0004H3.4563V15.3125Z" fill="#001838"/>
<path d="M7.27417 15.3125H8.96206V17.0004H7.27417V15.3125Z" fill="#001838"/>
<path d="M11.0925 15.3125H12.7804V17.0004H11.0925V15.3125Z" fill="#001838"/>
</svg>
