<svg width="9" height="9" viewBox="0 0 9 9" fill="none" xmlns="http://www.w3.org/2000/svg">
<path fill-rule="evenodd" clip-rule="evenodd" d="M1.18843 7.36193C0.928077 7.62228 0.928077 8.04439 1.18843 8.30474C1.44878 8.56509 1.87089 8.56509 2.13124 8.30474L4.9931 5.44287L7.85497 8.30474C8.11532 8.56509 8.53743 8.56509 8.79778 8.30474C9.05813 8.04439 9.05813 7.62228 8.79778 7.36194L5.93591 4.50007L5.93598 4.5L5.93592 4.49994L8.79778 1.63808C9.05813 1.37773 9.05813 0.955615 8.79778 0.695266C8.53743 0.434916 8.11532 0.434916 7.85497 0.695266L4.99311 3.55713L2.13124 0.695262C1.87089 0.434913 1.44878 0.434913 1.18843 0.695262C0.928077 0.955611 0.928077 1.37772 1.18843 1.63807L4.0503 4.49994L4.05023 4.50001L4.05029 4.50006L1.18843 7.36193Z" fill="#FAFAFA"/>
</svg>
