<svg width="50" height="39" viewBox="0 0 50 39" fill="none" xmlns="http://www.w3.org/2000/svg">
<path d="M47.2567 0.277473C44.4188 1.19603 40.0254 5.95592 38.5499 9.00241C37.7939 8.16424 32.7365 1.90768 24.9997 1.90768C17.263 1.90768 12.2056 8.16354 11.4496 9.00241C9.9741 5.95592 5.58068 1.19603 2.74275 0.277473C-0.572492 -0.79558 0.00730508 1.51551 0.0901335 2.58856C0.172962 3.66161 1.08478 4.07475 1.7474 10.678C2.19734 15.1611 4.23928 17.4288 5.50627 18.4257C3.60262 21.1967 3.7374 23.2869 3.7374 23.2869C3.7374 35.6686 15.4892 38.3929 24.9997 38.3929C34.5103 38.3929 46.2621 35.6686 46.2621 23.2869C46.2621 23.2869 46.3962 21.196 44.4932 18.4257C45.7602 17.4288 47.8014 15.1611 48.2521 10.678C48.9154 4.07405 49.8265 3.66161 49.9093 2.58856C49.9922 1.51551 50.5727 -0.79558 47.2567 0.277473ZM24.9998 28.4999C30.67 28.4999 35.5358 30.581 37.6206 33.5478C34.0365 32.6782 29.688 32.1686 24.9998 32.1686C20.3115 32.1686 15.963 32.6782 12.3789 33.5478C14.4637 30.581 19.3295 28.4999 24.9998 28.4999ZM19.2776 25.238V22.0195C19.2776 21.7483 19.498 21.5288 19.7703 21.5288L22.0032 21.2932C22.2748 21.2932 22.4959 21.5127 22.4959 21.784V25.238H19.2776ZM27.5035 25.238V21.784C27.5035 21.5127 27.724 21.2932 27.9963 21.2932L30.2292 21.5288C30.5015 21.5288 30.7219 21.7483 30.7219 22.0195V25.238H27.5035ZM38.0663 22.1321C38.0663 23.8867 36.6378 25.3093 34.876 25.3093L34.4787 25.3156V18.0482C34.4787 17.5589 34.0807 17.1625 33.5893 17.1625L26.9736 16.9269C26.4822 16.9269 26.0842 17.3233 26.0842 17.8126V25.4547L25.0004 25.4729L23.916 25.4547V17.8126C23.916 17.3233 23.518 16.9269 23.0266 16.9269L16.4108 17.1625C15.9195 17.1625 15.5215 17.5589 15.5215 18.0482V25.3156L15.1242 25.3093C13.3623 25.3093 11.9339 23.8867 11.9339 22.1321C11.9339 17.0255 16.0908 12.8857 21.2177 12.8857H28.7825C33.9094 12.8857 38.0663 17.0262 38.0663 22.1321Z" fill="white"/>
</svg>
