<svg width="65" height="65" viewBox="0 0 65 65" fill="none" xmlns="http://www.w3.org/2000/svg">
<g clip-path="url(#clip0_1711_132)">
<path d="M32.4975 2.00781C15.6861 2.00781 2.00806 15.6859 2.00806 32.4989C2.00806 49.312 15.6861 62.9917 32.4975 62.9917C49.3089 62.9917 62.9919 49.312 62.9919 32.4989C62.9919 15.6859 49.3122 2.00781 32.4975 2.00781ZM32.4975 61.6175C16.4183 61.6175 3.38062 48.5815 3.38062 32.4989C3.38062 16.4164 16.4183 3.38201 32.4975 3.38201C48.5768 3.38201 61.6177 16.418 61.6177 32.4989C61.6177 48.5798 48.5817 61.6175 32.4975 61.6175Z" fill="#001838"/>
<path d="M32.4975 2.00781C15.6861 2.00781 2.00806 15.6859 2.00806 32.4989C2.00806 49.312 15.6861 62.9917 32.4975 62.9917C49.3089 62.9917 62.9919 49.312 62.9919 32.4989C62.9919 15.6859 49.3122 2.00781 32.4975 2.00781ZM32.4975 61.6175C16.4183 61.6175 3.38062 48.5815 3.38062 32.4989C3.38062 16.4164 16.4183 3.38201 32.4975 3.38201C48.5768 3.38201 61.6177 16.418 61.6177 32.4989C61.6177 48.5798 48.5817 61.6175 32.4975 61.6175Z" fill="#001838"/>
<path d="M6.66133 31.7904L6.13557 31.9181L5.99799 31.376L6.86443 31.1172H7.31813V34.1588H6.66297V31.7904H6.66133Z" fill="#001838"/>
<path d="M8.07976 33.3278V33.3197C8.07976 32.9528 8.24847 32.7382 8.56949 32.5908C8.33528 32.4483 8.18459 32.2534 8.18459 31.9307V31.9225C8.18459 31.4606 8.60553 31.0938 9.24595 31.0938C9.88637 31.0938 10.3057 31.4557 10.3057 31.9225V31.9307C10.3057 32.2534 10.155 32.4483 9.92076 32.5908C10.227 32.7497 10.4089 32.9446 10.4089 33.3016V33.3115C10.4089 33.8716 9.91257 34.2008 9.24431 34.2008C8.57605 34.2008 8.07812 33.8552 8.07812 33.3278H8.07976ZM9.7668 33.2771V33.2689C9.7668 33.0363 9.54732 32.8987 9.24431 32.8987C8.9413 32.8987 8.72182 33.0363 8.72182 33.2689V33.2771C8.72182 33.4851 8.91673 33.6538 9.24431 33.6538C9.57189 33.6538 9.7668 33.4884 9.7668 33.2771ZM9.67671 32.0044V31.9962C9.67671 31.8111 9.5162 31.6424 9.24595 31.6424C8.97569 31.6424 8.81518 31.8062 8.81518 31.993V32.0011C8.81518 32.2124 8.98225 32.3713 9.24595 32.3713C9.50965 32.3713 9.67671 32.2157 9.67671 32.0044Z" fill="#001838"/>
<path d="M55.9932 32.9187C55.8392 33.0481 55.6411 33.1251 55.3823 33.1251C54.7255 33.1251 54.3045 32.7615 54.3045 32.1489V32.1424C54.3045 31.5331 54.7746 31.0859 55.456 31.0859C55.8605 31.0859 56.098 31.1842 56.3273 31.4135C56.5419 31.6297 56.686 31.9573 56.686 32.5519V32.56C56.686 33.5395 56.2242 34.2078 55.3643 34.2078C54.9253 34.2078 54.6272 34.062 54.3717 33.8491L54.7222 33.3446C54.9417 33.5215 55.1268 33.6034 55.3823 33.6034C55.8392 33.6034 55.9686 33.1775 55.9932 32.9187ZM56.008 32.1244V32.1145C56.008 31.8476 55.8098 31.6526 55.4773 31.6526C55.1448 31.6526 54.963 31.8426 54.963 32.1096V32.1195C54.963 32.3864 55.1612 32.5715 55.4904 32.5715C55.8196 32.5715 56.0096 32.3815 56.0096 32.1227L56.008 32.1244Z" fill="#001838"/>
<path d="M58.8071 33.5085H57.3314L57.2249 33.0384L58.8825 31.1172H59.4426V32.968H59.8488V33.5085H59.4426V34.1604H58.8088V33.5085H58.8071ZM58.8071 32.968V32.0279L58.0046 32.968H58.8071Z" fill="#001838"/>
<path d="M7.7309 22.0805L8.29106 21.024L10.7938 20.8438L9.52439 18.6769L10.0813 17.6172L14.5446 19.9676L14.0319 20.9421L11.1181 19.409L12.3629 21.6677L12.3498 21.6939L9.80775 21.9445L12.7019 23.4678L12.1958 24.4308L7.7309 22.0805Z" fill="#001838"/>
<path d="M12.8346 14.1577L13.5356 13.4141L18.7147 15.3239L17.9186 16.1674L16.7803 15.7284L15.3176 17.2795L15.8254 18.39L15.049 19.2122L12.8346 14.156V14.1577ZM15.7959 15.3435L14.1466 14.7096L14.8771 16.3181L15.7959 15.3435Z" fill="#001838"/>
<path d="M16.8344 10.4866L17.7106 9.95756L21.3402 11.3858L19.7302 8.73078L20.6687 8.16406L23.2828 12.475L22.4736 12.9647L18.7245 11.489L20.387 14.2308L19.4501 14.7992L16.8344 10.4866Z" fill="#001838"/>
<path d="M23.6038 9.60524L23.5989 9.59214C23.2025 8.21303 23.9133 6.78478 25.4038 6.35565C26.3161 6.09195 26.9533 6.23773 27.5298 6.55056L27.0761 7.53003C26.606 7.29908 26.1654 7.20081 25.679 7.34003C24.8633 7.57589 24.4686 8.42432 24.7094 9.25637L24.7143 9.26948C24.955 10.0999 25.7281 10.6273 26.5602 10.3882C27.1138 10.2276 27.389 9.90826 27.669 9.45128L28.5453 9.94101C28.2014 10.6175 27.7427 11.1105 26.8091 11.3807C25.3825 11.7918 24.0051 10.9975 23.6038 9.60524Z" fill="#001838"/>
<path d="M29.6525 5.56123L30.7614 5.53338L30.8122 7.52834L32.8579 7.47757L32.8088 5.48097L33.916 5.45312L34.0437 10.4946L32.9365 10.5241L32.8825 8.50125L30.8384 8.55203L30.8908 10.5748L29.7819 10.6027L29.6525 5.56123Z" fill="#001838"/>
<path d="M40.4446 11.1828L41.3717 10.7455C41.6256 11.2762 41.958 11.6905 42.4805 11.933C42.8933 12.1229 43.2176 12.0738 43.3421 11.8068L43.347 11.7921C43.4666 11.5366 43.3699 11.3335 42.6935 10.7848C41.8811 10.1231 41.4044 9.5924 41.8237 8.685L41.8287 8.67026C42.2136 7.83984 43.1341 7.59907 44.0709 8.03148C44.7376 8.3394 45.2093 8.81112 45.5025 9.39912L44.6278 9.9167C44.351 9.44662 44.0316 9.09284 43.6451 8.91431C43.2618 8.73577 42.9752 8.81931 42.872 9.04206L42.8671 9.05516C42.7295 9.35654 42.8785 9.5449 43.5763 10.1132C44.3936 10.7848 44.7621 11.3597 44.3936 12.1573L44.3871 12.1704C43.9678 13.0795 43.0358 13.2695 42.0498 12.8141C41.3569 12.4915 40.7673 11.9264 40.443 11.1812L40.4446 11.1828Z" fill="#001838"/>
<path d="M47.8021 11.4709L46.5819 10.5406L47.2026 9.72656L50.5243 12.2604L49.9052 13.0728L48.6849 12.1441L46.2461 15.3413L45.3649 14.6681L47.8021 11.4709Z" fill="#001838"/>
<path d="M55.777 18.6377L56.8138 20.6966C57.1004 21.2698 57.1643 21.7956 57.0169 22.2411C56.8908 22.6178 56.6058 22.9307 56.1799 23.1452L56.1685 23.1518C55.4412 23.517 54.7861 23.3549 54.2849 22.8881L53.2284 24.7979L52.6453 23.6382L53.6019 21.9463L53.2088 21.1666L51.7691 21.8906L51.2711 20.898L55.7786 18.6328L55.777 18.6377ZM54.5912 21.735C54.8352 22.2182 55.2316 22.3639 55.6116 22.1723L55.6247 22.1658C56.0489 21.9512 56.1193 21.5466 55.8753 21.0635L55.3806 20.0774L54.0867 20.7293L54.5895 21.735H54.5912Z" fill="#001838"/>
<path d="M37.0788 8.94403L38.9378 9.34859L39.4521 8.44939L37.2884 7.98095L37.5063 6.98019L40.1466 7.55182L40.3546 6.5871L36.6349 5.78125L35.567 10.7113L39.3211 11.5254L39.5307 10.5606L36.856 9.98082L37.0788 8.94403Z" fill="#001838"/>
<path d="M52.0459 13.7578L48.1772 16.9976L50.6471 19.9425L51.4022 19.307L49.6431 17.2089L50.4555 16.5275L51.6921 18.0032L52.6961 17.6626L51.2122 15.8936L51.9967 15.2368L53.7329 17.3088L54.4896 16.6733L52.0459 13.7578Z" fill="#001838"/>
<path d="M24.0378 56.7541V56.741C24.0378 55.28 25.1368 54.0859 26.7141 54.0859C27.6821 54.0859 28.262 54.4086 28.7386 54.8787L28.0195 55.7058C27.6232 55.3471 27.2202 55.126 26.7059 55.126C25.8411 55.126 25.2171 55.845 25.2171 56.7246V56.7393C25.2171 57.6172 25.8264 58.3527 26.7059 58.3527C27.294 58.3527 27.651 58.1168 28.0556 57.7499L28.7746 58.4771C28.2472 59.0422 27.6592 59.3944 26.6699 59.3944C25.1581 59.3944 24.0378 58.2282 24.0378 56.7541Z" fill="#001838"/>
<path d="M29.8737 54.1719H31.0038V59.3067H29.8737V54.1719Z" fill="#001838"/>
<path d="M33.6277 55.2136H32.0668V54.1719H36.3204V55.2136H34.7579V59.3067H33.6294V55.2136H33.6277Z" fill="#001838"/>
<path d="M38.7756 57.2822L36.8036 54.1719H38.1221L39.3489 56.2323L40.5937 54.1719H41.8794L39.9058 57.2593V59.305H38.7756V57.2806V57.2822Z" fill="#001838"/>
<path d="M32.4975 0C14.5806 0 0 14.5789 0 32.4992C0 50.4194 14.5806 65 32.4975 65C50.4145 65 65 50.4178 65 32.4992C65 14.5806 50.4211 0 32.4975 0ZM32.4975 63.6717C15.3127 63.6717 1.33161 49.6856 1.33161 32.4992C1.33161 15.3127 15.3127 1.32997 32.4975 1.32997C49.6824 1.32997 63.6667 15.3127 63.6667 32.4992C63.6667 49.6856 49.6856 63.6717 32.4975 63.6717Z" fill="#001838"/>
<path fill-rule="evenodd" clip-rule="evenodd" d="M40.728 23.6312C40.728 23.6312 40.7149 23.7541 40.6641 23.9736C40.6985 23.759 40.728 23.6312 40.728 23.6312ZM23.1353 29.2296C23.7512 29.2934 24.308 29.3901 24.5881 29.4441C24.7257 29.4736 24.7896 29.4867 24.7896 29.4867C24.7896 29.4867 24.6012 28.2812 24.7716 27.3214C24.9403 26.3616 25.2482 25.6377 25.4578 25.2249C25.5938 24.9694 25.6888 24.8318 25.6888 24.8318C25.6888 24.8318 25.6855 24.8335 25.679 24.8367C25.679 24.8335 25.6822 24.8318 25.6822 24.8318C25.6822 24.8318 25.6806 24.8351 25.679 24.8384C25.5889 24.8826 24.8698 25.2511 23.8167 26.319C22.3229 27.8357 21.8168 29.2214 21.8168 29.2214C21.8168 29.2214 22.3933 29.1526 23.1353 29.2296ZM26.0803 23.1661C26.4291 23.1481 26.9254 23.112 27.0384 23.1006C27.0384 23.1006 27.0482 23.1006 27.0499 23.1006H27.0564C27.1318 23.0924 27.1678 23.0498 27.1776 22.999C27.1776 22.9941 27.1744 23.0039 27.1776 22.9908C27.1907 22.9302 27.2432 22.886 27.3054 22.8811C27.348 22.8778 27.6264 22.8467 27.8115 22.827L27.8 24.0898L26.208 24.6369C26.1998 24.6631 25.7183 25.0775 25.6626 26.034C25.6118 26.9693 26.0852 27.2526 26.0852 27.2526C26.0852 27.2526 26.0852 27.251 26.0884 27.2477C26.0901 27.2526 26.0917 27.2559 26.0934 27.2592C26.1654 27.1544 26.3587 26.889 26.9205 26.6548C26.9582 26.6401 26.9975 26.6253 27.0384 26.6106C28.4093 26.1389 30.062 26.0946 30.062 26.0946C30.062 26.0946 29.9047 25.9161 29.7328 25.6573C29.5706 25.4018 29.3904 25.0464 29.2905 24.6189C29.2905 24.614 29.2905 24.6074 29.2905 24.6041C29.2529 24.3454 29.2594 24.1242 29.2823 23.9523C29.3102 23.7721 29.3511 23.6296 29.3708 23.5723C29.3773 23.5559 29.379 23.5461 29.379 23.5461V23.5412C29.379 23.5412 29.379 23.5444 29.3757 23.5477L28.0572 23.9998L28.0425 22.2767L28.0326 22.2816C27.9409 22.3144 27.2382 22.5601 27.1645 22.5813C27.1596 22.5813 27.1563 22.5846 27.1498 22.5863C27.0597 22.6125 27.0237 22.6763 27.022 22.7009C27.0171 22.7419 26.9909 22.7681 26.9467 22.7844C26.9467 22.7844 26.9336 22.791 26.9254 22.7926C26.8599 22.8139 26.4029 22.9744 26.0737 23.0875C26.0164 23.1087 26.0377 23.1661 26.0819 23.1644L26.0803 23.1661ZM46.8521 32.584L46.7898 33.7502H18.6065L18.5541 32.584H25.5741C25.2842 32.1401 24.408 30.8282 24.1885 30.7217C23.1271 30.2041 21.6383 29.6276 21.6383 29.6276L21.7103 29.4294C21.7103 29.4294 22.5489 29.8159 24.408 30.1648C25.3825 30.3466 26.2801 30.5399 27.7427 30.6758L27.7525 29.7373C27.6526 29.7537 27.5544 29.7717 27.4594 29.7946C27.2055 29.852 27.0237 29.9077 26.8894 29.9617C26.7076 30.0436 26.6109 30.1239 26.5618 30.1763C26.5438 30.1992 26.5307 30.2205 26.5192 30.2418C26.5176 30.2402 26.5176 30.2369 26.5176 30.2352C26.5159 30.2402 26.5143 30.2434 26.5143 30.2434C26.5143 30.2434 25.8886 29.7766 25.7232 28.9102C25.5545 28.0224 25.9918 27.5016 25.9918 27.5016L30.0685 26.1012C30.0685 26.1012 29.9359 26.6368 29.9752 27.2756C29.9883 27.441 30.0145 27.6179 30.0587 27.7964C30.1341 28.0961 30.2454 28.3926 30.3683 28.6596C30.4715 28.8692 30.5828 29.0625 30.6877 29.2279C30.614 29.0429 30.5517 28.8381 30.5124 28.6137C30.3404 27.6474 30.9923 26.9463 30.9923 26.9463L35.9338 25.2397C35.9011 25.2397 35.7848 25.2446 35.6112 25.2544C35.0052 25.3035 33.6867 25.4395 32.6433 25.7277C32.1585 25.8621 31.7785 26.0881 31.5132 26.2945C31.2445 26.5123 31.1086 26.699 31.0922 26.7252L31.0889 26.7301C31.0889 26.7301 30.5599 26.1356 30.4764 25.2216C30.3814 24.1816 30.9792 23.8851 30.9874 23.8556L35.092 22.429C34.9249 22.4388 33.3542 22.5388 32.0684 22.922C31.975 22.9515 31.8899 22.9843 31.8113 23.0203C31.8063 23.0236 31.7998 23.0269 31.7932 23.0285C31.7687 23.04 31.7474 23.0514 31.7261 23.0629C31.3395 23.266 31.1332 23.5493 31.0693 23.6738C31.0693 23.6738 30.6156 23.551 30.5763 22.6157C30.5452 21.8148 31.084 21.2628 31.0955 21.2317L32.8612 20.6191L32.8726 19.6626C32.6875 19.6823 32.4206 19.7117 32.3796 19.7167C32.36 19.7167 32.3452 19.7232 32.3288 19.7298C32.2912 19.7511 32.2617 19.7838 32.2551 19.8264C32.2519 19.8395 32.2551 19.8264 32.2551 19.8346C32.2453 19.8854 32.2109 19.9296 32.1372 19.9378H32.129C32.0684 19.9427 31.5263 19.9836 31.1528 20.0017C31.1119 20.0033 31.0873 19.9443 31.1479 19.9247C31.4755 19.8149 31.9325 19.6511 31.9996 19.6315C32.0602 19.6135 32.093 19.5856 32.0979 19.5381C32.0979 19.5119 32.1388 19.4448 32.2387 19.4186C32.319 19.3973 33.1183 19.1172 33.1183 19.1172L33.1216 20.5291L34.6628 19.9935C34.6628 19.9935 34.4303 20.5553 34.4876 21.0335C34.594 21.9147 35.0756 22.3897 35.11 22.4241H35.1149C35.1149 22.4241 35.11 22.4323 35.1034 22.4552C35.0969 22.5076 35.0576 22.7779 35.0625 23.0924C35.0658 23.1841 35.074 23.284 35.0838 23.397C35.092 23.4609 35.1018 23.5248 35.1165 23.5854C35.2197 24.026 35.4212 24.4305 35.6014 24.727C35.7078 24.8973 35.8061 25.0415 35.8716 25.1315C35.9191 25.1938 35.9453 25.2298 35.9453 25.2298H35.942C35.942 25.2298 35.9453 25.2347 35.947 25.2364L35.9519 25.2331C35.9519 25.2331 35.9437 25.2708 35.9306 25.3363C35.9437 25.2855 35.9519 25.256 35.9519 25.256C35.9519 25.256 35.942 25.3019 35.9207 25.3838C35.8716 25.6508 35.7832 26.2453 35.8487 26.8874C35.8683 27.0463 35.8978 27.2084 35.9388 27.3738C36.1713 28.2992 36.8216 29.3098 37.1672 29.8012L37.2409 22.0343C37.0558 22.0556 36.7659 22.0867 36.7233 22.09C36.6627 22.0932 36.607 22.1391 36.5956 22.1997C36.5906 22.2112 36.5956 22.2014 36.5956 22.2063C36.5874 22.2456 36.5644 22.2783 36.5202 22.298C36.5137 22.2996 36.5038 22.3029 36.494 22.3045C36.4891 22.3062 36.4825 22.3095 36.4776 22.3095H36.4711C36.4711 22.3095 36.4629 22.3095 36.4547 22.3111C36.3384 22.3193 35.8454 22.357 35.4982 22.3733C35.4556 22.3733 35.4343 22.316 35.4933 22.2947C35.8192 22.1866 36.2778 22.0228 36.3417 22.0032C36.3548 21.9983 36.3679 21.9933 36.3777 21.9884C36.3794 21.9884 36.381 21.9868 36.3826 21.9851C36.3892 21.9835 36.3941 21.9786 36.399 21.9753C36.4203 21.9589 36.4334 21.9393 36.435 21.9114C36.435 21.8983 36.4465 21.8754 36.4694 21.8508C36.4793 21.841 36.4907 21.8312 36.5038 21.8214H36.5071C36.5219 21.8115 36.5382 21.8033 36.5595 21.7952C36.5612 21.7952 36.5612 21.7952 36.5644 21.7935C36.5644 21.7935 36.5726 21.7919 36.5759 21.7902C36.6578 21.7673 37.4555 21.4872 37.4555 21.4872H37.4587L37.4882 24.7516L40.7296 23.6329C40.7296 23.6329 40.7018 23.7754 40.6641 24.003C40.6657 23.9932 40.6674 23.9834 40.6706 23.9752C40.592 24.4633 40.4774 25.3985 40.5724 26.3141C40.6739 27.31 41.1817 28.201 41.37 28.4991C41.4077 28.558 41.4339 28.5908 41.4339 28.5908H41.429C41.4339 28.6006 41.4388 28.6055 41.4388 28.6055L37.5357 29.9502L37.539 30.3663C39.5683 30.1681 40.9606 29.8815 40.9606 29.8815C40.9606 29.8815 40.9737 30.512 40.0466 31.3801C39.7911 31.6176 39.7158 32.1106 40.1351 32.5774C40.1383 32.5807 40.14 32.5824 40.1432 32.5856H46.857L46.8521 32.584ZM33.1298 29.7193V30.8511C33.2199 30.8511 33.3099 30.8511 33.4 30.8511C33.8308 30.8478 34.2501 30.8331 34.6563 30.82C34.8545 30.8134 35.5457 30.512 35.7389 30.5022C36.2319 30.476 36.7069 30.4416 37.1541 30.4007L37.1574 30.042C36.5219 29.8864 34.6317 29.4802 33.1314 29.7209L33.1298 29.7193ZM28.1063 29.6882L28.1162 30.707C29.2479 30.797 30.7073 30.8544 32.7367 30.8527L32.7481 29.7963C31.9112 30.0076 31.6737 30.345 31.5951 30.4973C31.5934 30.4957 31.5918 30.4924 31.5918 30.4891C31.582 30.4809 31.2642 30.2352 30.9677 29.7766C30.7581 29.7455 29.3544 29.5604 28.108 29.6882H28.1063ZM32.776 32.5823H38.3776C37.2294 32.376 36.3286 31.9927 35.5653 32.0074C35.4474 32.0074 35.0183 32.3318 33.7784 32.353C32.4173 32.3776 31.8276 31.996 30.2716 31.8993C30.1357 31.8928 30.3552 32.3023 28.8434 32.376C28.239 32.4071 27.6117 32.2433 26.968 32.091C26.3571 31.9452 25.8526 32.0697 25.7003 32.5823H32.776Z" fill="#001838"/>
<path d="M52.6814 32.4958C52.6814 27.782 51.0402 23.4465 48.3033 20.0232C48.0379 18.4509 47.8103 17.5418 47.8103 17.5418C47.8103 17.5418 46.988 17.3797 45.5221 17.1749C42.0449 14.2529 37.5619 12.4922 32.6744 12.4922C27.787 12.4922 23.2876 14.2611 19.8071 17.1946C18.4444 17.3911 17.6893 17.5435 17.6893 17.5435C17.6893 17.5435 17.4797 18.3657 17.2323 19.7972C14.3857 23.2548 12.6724 27.6788 12.6724 32.4975C12.6724 42.392 19.8939 50.6306 29.343 52.2227C30.3912 52.6829 31.5214 53.0957 32.74 53.4495C33.9487 53.0809 35.0625 52.6633 36.0993 52.2079C45.5074 50.5799 52.683 42.3609 52.683 32.4958H52.6814ZM32.7383 51.7985C21.8545 48.2524 18.6753 41.103 18.1217 37.0115C17.1422 29.7704 18.0988 23.0124 18.6426 20.0691C18.826 19.0798 18.9472 18.8243 18.9472 18.8243C18.9472 18.8243 24.4538 17.6827 32.74 17.681C41.0228 17.681 46.5311 18.8472 46.5311 18.8472C46.5311 18.8472 46.6572 19.0749 46.839 20.056C47.3828 22.9928 48.3442 29.7606 47.3615 37.0099C46.8062 41.1014 43.6222 48.2508 32.7383 51.7968V51.7985ZM32.6744 13.6109C36.6169 13.6109 40.2808 14.8246 43.311 16.8965C40.669 16.6 37.0165 16.3134 32.7744 16.3118H32.586C28.2947 16.3118 24.6422 16.6066 22.0248 16.9063C25.0582 14.8262 28.7271 13.6092 32.6744 13.6092V13.6109ZM13.7895 32.4958C13.7895 28.6845 14.9245 25.1319 16.8753 22.1607C16.4117 25.7706 16.0727 31.1315 16.9064 36.9182C17.365 40.0973 19.3567 45.6613 24.9943 49.7478C18.3969 46.7996 13.7911 40.1759 13.7911 32.4942L13.7895 32.4958ZM40.687 49.5988C46.3362 45.4975 48.1559 40.1301 48.6046 36.9591C49.4072 31.2953 49.1009 26.0458 48.6538 22.4359C50.4964 25.3497 51.5627 28.8007 51.5627 32.4958C51.5627 40.0482 47.106 46.5785 40.687 49.5988Z" fill="#001838"/>
<path d="M29.2332 47.5854C29.094 47.6263 28.9433 47.605 28.8204 47.5248L28.8123 47.5199C28.8123 47.5199 28.8041 47.5149 28.8008 47.51L28.7648 47.4822C28.6567 47.3905 28.5944 47.2562 28.5944 47.1137L28.5879 46.2128C28.5879 46.203 28.5895 46.1915 28.5911 46.1801L18.6327 34.1562C18.6966 35.098 18.79 36.0595 18.9226 37.0275C19.4402 40.8438 22.3933 47.4855 32.4566 50.8464L29.6525 47.4593L29.2348 47.5821L29.2332 47.5854Z" fill="#001838"/>
<path d="M37.3048 45.2235C37.2966 45.2547 37.2867 45.2923 37.272 45.3365C37.1754 45.6297 36.9821 45.8803 36.7233 46.049C36.743 46.1047 36.7528 46.1637 36.7512 46.221L36.7282 47.135C36.7249 47.2742 36.6611 47.4052 36.5546 47.4953V47.5002L36.5186 47.5264C36.435 47.5854 36.3351 47.6165 36.2319 47.6165C36.1812 47.6165 36.1304 47.61 36.0829 47.5952L35.2132 47.3233C35.1542 47.3037 35.0969 47.2725 35.0494 47.2332C34.825 47.4167 34.5433 47.5264 34.2534 47.5428L35.9912 49.6393C37.2671 49.0447 38.3956 48.3912 39.3931 47.6984L37.3129 45.1875C37.3097 45.2006 37.308 45.2137 37.3048 45.2252V45.2235Z" fill="#001838"/>
<path d="M27.7755 39.7198C27.8164 39.3628 27.972 39.1105 28.3127 38.8697C28.4536 38.7715 28.6075 38.6978 28.7762 38.6568C28.8204 38.6421 28.8729 38.6257 28.9285 38.6093H28.9351C29.1497 38.5438 29.3691 38.4766 29.6541 38.2735C29.9555 38.0573 30.1013 37.8608 30.2552 37.6511L30.27 37.6315C30.3306 37.548 30.4043 37.4464 30.4911 37.3481C30.5337 37.3006 30.5894 37.24 30.6582 37.1925C30.6647 37.1876 30.6696 37.1827 30.6745 37.1778L28.18 34.1641H23.1681C23.1681 34.1641 27.7443 39.6789 27.7755 39.7215V39.7198Z" fill="#001838"/>
<path d="M32.5008 34.1657L36.055 38.4537C36.1599 38.4963 36.2614 38.5291 36.3646 38.5618L36.3793 38.5667C36.476 38.5979 36.5988 38.6372 36.7217 38.6863C36.7954 38.7174 36.8609 38.7518 36.9215 38.7944C36.9592 38.8141 36.9936 38.8386 37.0247 38.8616C37.272 39.0401 37.4505 39.2972 37.5341 39.5888C37.6012 39.5855 37.6667 39.5921 37.729 39.6134L38.6036 39.918C38.7412 39.9671 38.8493 40.0736 38.8984 40.2046L38.9132 40.2145V40.2456C38.9558 40.3946 38.9279 40.5486 38.8395 40.6682L38.4021 41.2775L41.9629 45.5704C42.9866 44.5614 43.7974 43.5214 44.4378 42.4961L37.5177 34.1641H32.5024L32.5008 34.1657Z" fill="#001838"/>
<path d="M42.112 34.1719L46.0642 38.9365C46.269 38.2502 46.4033 37.6082 46.4819 37.0316C46.6146 36.044 46.6981 35.1317 46.7636 34.1719H42.112Z" fill="#001838"/>
<path d="M32.658 37.6631C32.7498 37.3323 32.9332 37.0669 33.2018 36.8818L32.658 36.1562L32.0946 36.8818C32.3599 37.0456 32.563 37.3306 32.658 37.6631Z" fill="#001838"/>
<path d="M28.298 40.8472C28.0081 40.6572 27.8082 40.4033 27.7149 40.0938L26.8501 40.3804L27.3726 41.1355C27.6117 40.934 27.9475 40.8324 28.2963 40.8472" fill="#001838"/>
<path d="M29.985 45.8984C29.7164 46.1097 29.4085 46.2195 29.0825 46.2146L29.0907 47.117L29.9768 46.8582C29.8572 46.5716 29.8638 46.2211 29.9834 45.8984" fill="#001838"/>
<path d="M35.3409 45.8984C35.4621 46.2211 35.4687 46.5421 35.3671 46.8468L36.2336 47.1187L36.2581 46.2047C35.9469 46.226 35.6128 46.113 35.3409 45.8984Z" fill="#001838"/>
<path d="M36.9886 40.8574C37.3342 40.841 37.6471 40.9344 37.9059 41.126L38.4349 40.3922L37.5635 40.0859C37.4915 40.3857 37.2802 40.6658 36.9886 40.8574Z" fill="#001838"/>
<path d="M32.1994 42.2608C32.1994 42.002 32.414 41.7891 32.6728 41.7891C32.9316 41.7891 33.1494 42.002 33.1494 42.2608C33.1494 42.5196 32.9365 42.7341 32.6728 42.7341C32.4091 42.7341 32.1994 42.5228 32.1994 42.2608Z" fill="#001838"/>
<path d="M31.5574 45.9663C31.1528 45.9663 30.8236 45.6371 30.8236 45.2391C30.8236 45.1817 30.7728 45.1604 30.7384 45.1997C30.4796 45.5224 30.27 45.8041 30.2618 46.1514C30.252 46.6575 30.6762 47.0686 31.1872 47.0686C31.22 47.0686 31.2511 47.0686 31.2838 47.062C31.3281 47.062 31.3805 47.0571 31.4362 47.044C31.8014 46.9556 32.111 46.777 32.7301 46.777C33.2428 46.777 33.5163 46.9146 33.7866 46.9982C33.8963 47.044 34.0159 47.0686 34.1403 47.0686C34.6514 47.0686 35.0756 46.6575 35.0641 46.1514C35.0592 45.8025 34.8479 45.5208 34.5842 45.1997C34.5613 45.1686 34.522 45.1916 34.522 45.2391C34.522 45.6371 34.1911 45.9663 33.7849 45.9663C33.477 45.9663 33.0839 45.7059 32.7006 45.7059C32.3419 45.7059 31.8653 45.9663 31.559 45.9663H31.5574Z" fill="#001838"/>
<path d="M31.143 44.8529C31.143 45.1756 31.4083 45.4377 31.731 45.4377C31.7654 45.4409 31.8047 45.4377 31.8473 45.4262C31.862 45.4229 31.8784 45.418 31.8931 45.4147C31.903 45.4115 31.9079 45.4115 31.9161 45.4065C32.1159 45.3459 32.3092 45.2477 32.658 45.2477C33.0069 45.2477 33.1936 45.3492 33.3885 45.3983C33.4541 45.4213 33.5212 45.436 33.5933 45.436C33.9176 45.436 34.1813 45.174 34.1813 44.8513C34.1813 44.7694 34.1633 44.6875 34.1305 44.6154C34.119 44.5859 34.101 44.5581 34.0846 44.5303C34.0846 44.5303 33.0953 43.1888 33.0626 43.1495C33.0135 43.0856 32.9512 43.1118 32.9037 43.1249C32.8595 43.138 32.7383 43.1692 32.658 43.1692C32.5778 43.1692 32.4762 43.1528 32.414 43.1249C32.3501 43.0987 32.2977 43.0807 32.2551 43.1495C32.2207 43.2052 31.5099 44.1617 31.2855 44.4729C31.1987 44.5745 31.143 44.7088 31.143 44.8513V44.8529Z" fill="#001838"/>
<path d="M35.8815 44.4567C35.757 44.8416 35.3426 45.0496 34.956 44.9268C34.902 44.9071 34.8676 44.9481 34.8954 44.9923C35.1231 45.3379 35.3278 45.6229 35.6603 45.7359C36.1435 45.9014 36.6676 45.6278 36.8265 45.1479C36.8347 45.1184 36.8445 45.0857 36.8511 45.0562C36.8658 45.0136 36.8757 44.9628 36.8806 44.9055C36.9101 44.5337 36.8331 44.1881 37.0247 43.605C37.1819 43.1235 37.3998 42.9056 37.5636 42.678C37.6389 42.5862 37.6995 42.4847 37.7388 42.3684C37.8944 41.8852 37.6324 41.3611 37.1443 41.212C36.8069 41.1089 36.4711 41.2202 36.0813 41.3676C36.042 41.3857 36.0518 41.4282 36.0944 41.443C36.4826 41.5658 36.6955 41.9769 36.5694 42.3602C36.4727 42.6501 36.1026 42.94 35.9846 43.3036C35.8749 43.6411 35.9748 44.1701 35.8815 44.4584V44.4567Z" fill="#001838"/>
<path d="M34.6923 44.5001C35.0019 44.6 35.3327 44.4329 35.4327 44.1266C35.449 44.0955 35.4556 44.0595 35.4589 44.0136C35.4621 43.9989 35.4621 43.9825 35.4621 43.9661V43.9432C35.4654 43.7335 35.431 43.5239 35.5375 43.1947C35.6505 42.8524 35.8012 42.7213 35.9076 42.5526C35.9519 42.5002 35.9846 42.4396 36.0059 42.3725C36.1075 42.0645 35.9371 41.737 35.6325 41.6354C35.5489 41.6125 35.4671 41.6043 35.3868 41.6125C35.3557 41.6141 35.3229 41.6207 35.2918 41.6289C35.2918 41.6289 33.6965 42.1464 33.649 42.1644C33.5704 42.1907 33.5786 42.2611 33.5786 42.3053C33.5786 42.3544 33.5687 42.4789 33.5458 42.5543C33.5196 42.6312 33.4721 42.7197 33.4262 42.7721C33.3804 42.8229 33.3476 42.8687 33.3984 42.9261C33.4426 42.9768 34.1404 43.9448 34.3697 44.2511C34.4417 44.3658 34.5515 44.4559 34.6907 44.5017L34.6923 44.5001Z" fill="#001838"/>
<path d="M35.7487 39.9099C36.078 40.1474 36.15 40.6027 35.9109 40.927C35.8798 40.9729 35.9076 41.0204 35.9568 41.004C36.358 40.8975 36.6955 40.7911 36.9051 40.5126C37.2147 40.1097 37.1148 39.5299 36.702 39.2318C36.6742 39.2121 36.648 39.1957 36.6201 39.1794C36.5841 39.1532 36.5399 39.1302 36.4825 39.1057C36.1369 38.9632 35.7799 38.9288 35.2803 38.5668C34.8659 38.272 34.7267 38.0001 34.5564 37.7724C34.4974 37.6741 34.4139 37.584 34.3156 37.5136C33.9028 37.2155 33.3148 37.2991 33.0233 37.7151C32.8202 38.0034 32.8235 38.3539 32.8431 38.765C32.848 38.8059 32.8923 38.8108 32.9185 38.7732C33.1609 38.4456 33.6195 38.3752 33.9471 38.611C34.196 38.7912 34.3582 39.2285 34.6694 39.4545C34.9593 39.6642 35.4981 39.7297 35.7471 39.9082L35.7487 39.9099Z" fill="#001838"/>
<path d="M35.4474 41.0271C35.639 40.7667 35.5784 40.4047 35.318 40.2164C35.2934 40.1934 35.2607 40.1738 35.2164 40.1558C35.2001 40.1509 35.187 40.1459 35.1722 40.1394C35.164 40.1378 35.1575 40.1328 35.1493 40.1312C34.9495 40.064 34.7365 40.0296 34.4548 39.8282C34.16 39.6153 34.0814 39.4335 33.9536 39.2779C33.9143 39.2222 33.8668 39.1698 33.8078 39.1272C33.5458 38.9372 33.1773 38.9961 32.9889 39.2566C32.9365 39.3254 32.9054 39.4007 32.8873 39.4777C32.8808 39.5088 32.8759 39.5432 32.8759 39.5727C32.8759 39.5727 32.8792 41.2368 32.8824 41.2859C32.8873 41.3662 32.9529 41.3793 32.9971 41.3973C33.038 41.412 33.1576 41.4595 33.2215 41.5054C33.2886 41.5513 33.3591 41.625 33.3935 41.6823C33.4295 41.7413 33.4623 41.7855 33.5343 41.756C33.5966 41.7298 34.7398 41.3727 35.1034 41.2515C35.2361 41.2204 35.3573 41.1434 35.4457 41.0255L35.4474 41.0271Z" fill="#001838"/>
<path d="M31.3527 38.6213C31.6819 38.3838 32.1421 38.4559 32.3813 38.7818C32.414 38.8277 32.4648 38.8146 32.4681 38.7638C32.4877 38.3527 32.4894 38.0022 32.2895 37.7172C31.9963 37.3012 31.4116 37.2144 30.9989 37.5125C30.9727 37.5338 30.9465 37.5534 30.9219 37.5731C30.8875 37.5993 30.8482 37.632 30.8089 37.6779C30.5665 37.9613 30.4223 38.2856 29.9211 38.6475C29.5067 38.9456 29.2054 38.9948 28.9335 39.0832C28.8205 39.1111 28.7091 39.1602 28.6075 39.2323C28.1981 39.5287 28.0949 40.1085 28.4044 40.5131C28.6157 40.7915 28.9531 40.898 29.3561 41.0061C29.3954 41.0159 29.415 40.975 29.3872 40.9373C29.1497 40.613 29.2218 40.1544 29.5493 39.9202C29.7983 39.74 30.27 39.722 30.5812 39.4976C30.8711 39.2912 31.1021 38.8015 31.351 38.623L31.3527 38.6213Z" fill="#001838"/>
<path d="M32.3387 39.2781C32.1487 39.0193 31.7818 38.962 31.5197 39.1487C31.4886 39.1667 31.4607 39.1897 31.4296 39.2257C31.4198 39.2388 31.41 39.2503 31.4001 39.2617C31.3936 39.2699 31.3903 39.2732 31.3854 39.2798C31.2593 39.4468 31.1626 39.6385 30.8793 39.8432C30.5877 40.0528 30.3863 40.0709 30.1996 40.1462C30.1341 40.1659 30.0702 40.1921 30.0096 40.2363C29.7475 40.4246 29.6885 40.7899 29.8802 41.0503C29.9309 41.1175 29.9899 41.1715 30.0603 41.2125C30.0915 41.2305 30.1193 41.242 30.1488 41.2534C30.1488 41.2534 31.7457 41.7628 31.7965 41.7792C31.8735 41.8005 31.9095 41.7415 31.9374 41.7055C31.9652 41.6678 32.0455 41.5728 32.111 41.5237C32.1765 41.4778 32.2699 41.4336 32.337 41.4188C32.4042 41.4025 32.4566 41.3861 32.45 41.3091C32.4435 41.2403 32.4533 40.0528 32.45 39.6712C32.4615 39.5353 32.4255 39.3977 32.3403 39.2798L32.3387 39.2781Z" fill="#001838"/>
<path d="M28.7647 42.3815C28.6403 41.9983 28.8499 41.5855 29.2365 41.4627C29.2905 41.4463 29.2938 41.3922 29.2463 41.3742C28.8581 41.2301 28.5223 41.1171 28.1849 41.2186C27.6968 41.3644 27.4315 41.8918 27.5937 42.375C27.6002 42.4045 27.6117 42.434 27.6248 42.4618C27.6412 42.5044 27.6608 42.5502 27.6919 42.601C27.8868 42.9204 28.1571 43.1563 28.3454 43.7394C28.506 44.2209 28.4585 44.5223 28.4617 44.804C28.4519 44.9186 28.465 45.0399 28.5027 45.1561C28.6632 45.6393 29.1873 45.9112 29.6705 45.7474C30.0014 45.6311 30.2061 45.3478 30.4338 45.0005C30.46 44.9661 30.4239 44.9367 30.3814 44.9514C29.9948 45.0742 29.5788 44.8679 29.4527 44.4813C29.3593 44.1914 29.4871 43.7426 29.3691 43.379C29.2594 43.0416 28.8614 42.6731 28.7664 42.3848L28.7647 42.3815Z" fill="#001838"/>
<path d="M29.6984 41.6565C29.3904 41.7581 29.2217 42.0873 29.3216 42.3936C29.3282 42.4263 29.3413 42.4607 29.3659 42.5C29.3773 42.5131 29.3839 42.5262 29.3953 42.541C29.397 42.5475 29.4019 42.5524 29.4052 42.559C29.5264 42.731 29.6803 42.8817 29.7884 43.2109C29.8998 43.5532 29.8556 43.7481 29.8687 43.9479C29.8654 44.0134 29.872 44.0839 29.8965 44.151C29.9965 44.4557 30.3289 44.626 30.6385 44.5261C30.7155 44.5015 30.7892 44.4557 30.8482 44.4049C30.8744 44.3852 30.8989 44.3607 30.9153 44.3345C30.9153 44.3345 31.8981 42.9881 31.9259 42.9455C31.9718 42.8767 31.9259 42.8276 31.9013 42.7883C31.8719 42.7506 31.8047 42.6442 31.7801 42.5688C31.7539 42.4935 31.7408 42.3936 31.7474 42.3248C31.7523 42.2576 31.7523 42.2036 31.6769 42.1823C31.6098 42.1675 30.4731 41.7908 30.1046 41.6794C29.9801 41.627 29.8359 41.6172 29.6967 41.6581L29.6984 41.6565Z" fill="#001838"/>
</g>
<defs>
<clipPath id="clip0_1711_132">
<rect width="65" height="65" fill="white"/>
</clipPath>
</defs>
</svg>
