<svg width="772" height="386" viewBox="0 0 772 386" fill="none" xmlns="http://www.w3.org/2000/svg">
<path d="M-507.708 307.611C-281.083 137.195 -6.4375 139.262 -6.4375 139.262C-6.4375 139.262 -200.08 233.664 -287.113 462.396C-354.421 381.34 -454.748 320.594 -507.708 307.575M340.456 205.086L216.301 181.295L292.945 45.9127L200.246 27.9971C198.865 27.7432 197.449 28.2147 196.541 29.2664L191.492 34.8877C190.547 35.9031 188.985 36.4109 187.569 36.0845L92.2546 18.4227C90.4384 18.0238 89.5668 20.5624 91.2377 21.3966L184.263 68.0351C185.789 68.7967 187.859 68.3615 189.022 67.0922L197.594 57.5542C198.756 56.2486 200.645 55.8496 202.244 56.575L250.337 78.2623L192.364 176.58L43.0721 147.422C17.936 146.806 -127.542 249.186 -91.6171 352.726C80.3041 270.003 278.778 435.269 278.778 435.269C278.778 435.269 233.882 291.835 340.492 205.05M670.387 1105.76L980.993 1215.29C840.964 1384.21 764.72 1267.11 771.585 1410C593.707 1348.89 574.346 1187.03 424.546 1178.98C403.006 1177.21 356.221 1176.08 268.898 1125.74C141.401 1052.27 73.6931 893.24 27.1622 909.161C46.886 949.888 -27.6507 942.382 -116.281 901.219C-247.52 836.846 -264.773 688.082 -368.224 753.941C-368.224 753.941 -368.551 638.288 -389.909 531.665L-540 331.22L-525.434 319.071C-525.434 319.071 -395.939 485.352 -109.779 688.408L-66.6626 615.513C-75.235 612.285 -155.438 574.096 -186.35 599.519C-259.47 429.901 -103.495 361.249 -103.495 361.249L278.742 435.377C278.742 435.377 134.173 533.079 185.934 707.81C200.682 574.133 312.814 543.487 312.814 543.487L776.562 633.029C442.236 418.223 330.322 530.975 330.322 530.975C330.322 530.975 302.389 335.028 452.152 301.808L837.695 375.465C761.742 332.163 564.43 219.157 466.5 291.327C450.808 275.152 435.552 155.365 578.887 101.69L744.633 133.423L788.694 59.44L741.545 38.1879C739.947 37.4626 738.094 37.8615 736.896 39.1671L728.323 48.7052C727.161 49.9745 725.091 50.3734 723.565 49.6481L630.539 3.00952C628.868 2.17539 629.74 -0.326988 631.556 0.0356756L726.87 17.6974C728.287 17.9875 729.849 17.5161 730.794 16.5006L735.842 10.8793C736.787 9.8276 738.204 9.35614 739.548 9.61L832.355 27.6707L768.861 138.029L913.612 165.773C913.612 165.773 794.142 228.949 838.784 375.719C838.784 375.719 746.267 461.634 777.978 633.319C777.978 633.319 595.668 761.702 666.827 1044.8L1023.38 441.47L974.418 419.384C972.82 418.659 970.967 419.057 969.769 420.363L961.196 429.865C960.034 431.134 957.963 431.533 956.438 430.808L863.412 384.169C861.741 383.335 862.613 380.833 864.429 381.195L959.743 398.857C961.16 399.147 962.722 398.676 963.666 397.66L968.715 392.039C969.66 390.987 971.04 390.516 972.42 390.77L1065.12 408.685L919.896 664.98C919.896 664.98 1217.46 722.389 1224 723.659C983.136 900.204 1054.88 1144.2 1054.88 1144.2L688.767 1073.16L670.205 1105.87L670.387 1105.76ZM321.786 845.623C246.704 824.334 212.887 840.001 199.846 848.343C199.846 848.089 199.919 847.799 199.955 847.545C199.519 846.529 185.753 813.019 183.246 763.697C168.281 751.91 66.8279 674.083 -36.441 627.843L-81.737 707.956C2.7525 766.054 114.376 836.266 273.184 927.621L321.786 845.623ZM655.639 1063.58C612.958 1022.75 483.427 905.716 355.095 856.829L304.132 945.428C304.132 945.428 367.917 982.202 423.384 1014.15C451.208 1030.18 491.782 1010.82 521.785 1028.12C561.342 1048.86 639.221 1091.51 639.221 1091.51L655.603 1063.58H655.639Z" fill="url(#paint0_linear_1711_130)"/>
<defs>
<linearGradient id="paint0_linear_1711_130" x1="816.923" y1="705" x2="715.981" y2="-102.424" gradientUnits="userSpaceOnUse">
<stop stop-color="#3BD6FF" stop-opacity="0"/>
<stop offset="0.960997" stop-color="#E6FF00"/>
</linearGradient>
</defs>
</svg>
