<svg width="414" height="664" viewBox="0 0 414 664" fill="none" xmlns="http://www.w3.org/2000/svg">
<path d="M-944.708 307.611C-718.083 137.195 -443.438 139.262 -443.438 139.262C-443.438 139.262 -637.08 233.664 -724.113 462.396C-791.421 381.34 -891.748 320.594 -944.708 307.575M-96.5438 205.086L-220.699 181.295L-144.055 45.9127L-236.754 27.9971C-238.135 27.7432 -239.551 28.2147 -240.459 29.2664L-245.508 34.8877C-246.453 35.9031 -248.015 36.4109 -249.431 36.0845L-344.745 18.4227C-346.562 18.0238 -347.433 20.5624 -345.762 21.3966L-252.737 68.0351C-251.211 68.7967 -249.141 68.3615 -247.978 67.0922L-239.406 57.5542C-238.244 56.2486 -236.355 55.8496 -234.756 56.575L-186.663 78.2623L-244.636 176.58L-393.928 147.422C-419.064 146.806 -564.542 249.186 -528.617 352.726C-356.696 270.003 -158.222 435.269 -158.222 435.269C-158.222 435.269 -203.118 291.835 -96.5075 205.05M233.387 1105.76L543.993 1215.29C403.964 1384.21 327.72 1267.11 334.585 1410C156.707 1348.89 137.346 1187.03 -12.4538 1178.98C-33.9939 1177.21 -80.7792 1176.08 -168.102 1125.74C-295.599 1052.27 -363.307 893.24 -409.838 909.161C-390.114 949.888 -464.651 942.382 -553.281 901.219C-684.52 836.846 -701.773 688.082 -805.224 753.941C-805.224 753.941 -805.551 638.288 -826.909 531.665L-977 331.22L-962.434 319.071C-962.434 319.071 -832.939 485.352 -546.779 688.408L-503.663 615.513C-512.235 612.285 -592.438 574.096 -623.35 599.519C-696.47 429.901 -540.495 361.249 -540.495 361.249L-158.258 435.377C-158.258 435.377 -302.827 533.079 -251.066 707.81C-236.318 574.133 -124.186 543.487 -124.186 543.487L339.562 633.029C5.23627 418.223 -106.678 530.975 -106.678 530.975C-106.678 530.975 -134.611 335.028 15.1524 301.808L400.695 375.465C324.742 332.163 127.43 219.157 29.5004 291.327C13.8084 275.152 -1.44769 155.365 141.887 101.69L307.633 133.423L351.694 59.44L304.545 38.1879C302.947 37.4626 301.094 37.8615 299.896 39.1671L291.323 48.7052C290.161 49.9745 288.091 50.3734 286.565 49.6481L193.539 3.00952C191.868 2.17539 192.74 -0.326988 194.556 0.0356756L289.87 17.6974C291.287 17.9875 292.849 17.5161 293.794 16.5006L298.842 10.8793C299.787 9.8276 301.204 9.35614 302.548 9.61L395.355 27.6707L331.861 138.029L476.612 165.773C476.612 165.773 357.142 228.949 401.784 375.719C401.784 375.719 309.267 461.634 340.978 633.319C340.978 633.319 158.668 761.702 229.827 1044.8L586.383 441.47L537.418 419.384C535.82 418.659 533.967 419.057 532.769 420.363L524.196 429.865C523.034 431.134 520.963 431.533 519.438 430.808L426.412 384.169C424.741 383.335 425.613 380.833 427.429 381.195L522.743 398.857C524.16 399.147 525.722 398.676 526.666 397.66L531.715 392.039C532.66 390.987 534.04 390.516 535.42 390.77L628.119 408.685L482.896 664.98C482.896 664.98 780.462 722.389 787 723.659C546.136 900.204 617.876 1144.2 617.876 1144.2L251.767 1073.16L233.205 1105.87L233.387 1105.76ZM-115.214 845.623C-190.296 824.334 -224.113 840.001 -237.154 848.343C-237.154 848.089 -237.081 847.799 -237.045 847.545C-237.481 846.529 -251.247 813.019 -253.754 763.697C-268.719 751.91 -370.172 674.083 -473.441 627.843L-518.737 707.956C-434.247 766.054 -322.624 836.266 -163.816 927.621L-115.214 845.623ZM218.639 1063.58C175.958 1022.75 46.4273 905.716 -81.9052 856.829L-132.868 945.428C-132.868 945.428 -69.0828 982.202 -13.6161 1014.15C14.2079 1030.18 54.7819 1010.82 84.7854 1028.12C124.342 1048.86 202.221 1091.51 202.221 1091.51L218.603 1063.58H218.639Z" fill="url(#paint0_linear_1180_103)"/>
<defs>
<linearGradient id="paint0_linear_1180_103" x1="379.923" y1="705" x2="278.981" y2="-102.424" gradientUnits="userSpaceOnUse">
<stop stop-color="#3BD6FF" stop-opacity="0"/>
<stop offset="0.960997" stop-color="#E6FF00"/>
</linearGradient>
</defs>
</svg>
