<svg width="357" height="559" viewBox="0 0 357 559" fill="none" xmlns="http://www.w3.org/2000/svg">
<path d="M-779.554 239.304C-603.753 106.877 -390.7 108.484 -390.7 108.484C-390.7 108.484 -540.916 181.841 -608.43 359.584C-660.644 296.598 -738.471 249.393 -779.554 239.276M-121.602 159.634L-217.914 141.146L-158.459 35.9434L-230.369 22.0216C-231.439 21.8243 -232.538 22.1907 -233.243 23.0079L-237.159 27.3761C-237.892 28.1652 -239.104 28.5598 -240.203 28.3061L-314.141 14.5816C-315.55 14.2716 -316.226 16.2443 -314.93 16.8925L-242.767 53.1344C-241.583 53.7262 -239.977 53.388 -239.076 52.4017L-232.426 44.9898C-231.524 43.9753 -230.059 43.6653 -228.819 44.2289L-191.511 61.0817L-236.483 137.483L-352.294 114.825C-371.793 114.345 -484.645 193.903 -456.777 274.362C-323.412 210.079 -169.448 338.504 -169.448 338.504C-169.448 338.504 -204.276 227.045 -121.574 159.606M134.337 859.531L375.286 944.64C266.66 1075.91 207.515 984.912 212.84 1095.95C74.8536 1048.46 59.8349 922.686 -56.3705 916.43C-73.08 915.049 -109.373 914.175 -177.112 875.059C-276.017 817.962 -328.54 694.385 -364.636 706.757C-349.335 738.405 -407.156 732.571 -475.91 700.585C-577.717 650.562 -591.101 534.96 -671.352 586.138C-671.352 586.138 -671.605 496.266 -688.174 413.412L-804.604 257.65L-793.305 248.209C-793.305 248.209 -692.851 377.423 -470.866 535.214L-437.419 478.568C-444.069 476.06 -506.286 446.384 -530.265 466.14C-586.987 334.333 -465.992 280.985 -465.992 280.985L-169.476 338.589C-169.476 338.589 -281.624 414.511 -241.471 550.291C-230.03 446.413 -143.045 422.599 -143.045 422.599L216.701 492.18C-42.6478 325.259 -129.464 412.876 -129.464 412.876C-129.464 412.876 -151.133 260.609 -34.9553 234.795L264.124 292.032C205.204 258.383 52.1423 170.568 -23.8251 226.65C-35.9979 214.081 -47.8327 120.996 63.357 79.2872L191.932 103.946L226.112 46.4553L189.537 29.9407C188.297 29.3771 186.861 29.687 185.931 30.7016L179.281 38.1134C178.379 39.0998 176.773 39.4098 175.589 38.8462L103.426 2.60426C102.13 1.95608 102.806 0.0115289 104.215 0.293348L178.153 14.0179C179.252 14.2434 180.464 13.877 181.197 13.0879L185.113 8.71973C185.846 7.90246 186.945 7.53609 187.988 7.73337L259.982 21.7679L210.727 107.525L323.016 129.085C323.016 129.085 230.339 178.177 264.969 292.229C264.969 292.229 193.201 358.992 217.8 492.405C217.8 492.405 76.3753 592.169 131.576 812.157L408.169 343.323L370.186 326.16C368.946 325.597 367.509 325.907 366.579 326.921L359.929 334.305C359.027 335.291 357.421 335.601 356.237 335.038L284.074 298.796C282.778 298.148 283.454 296.203 284.863 296.485L358.802 310.209C359.901 310.435 361.112 310.069 361.845 309.279L365.761 304.911C366.494 304.094 367.565 303.728 368.636 303.925L440.545 317.847L327.891 517.008C327.891 517.008 558.723 561.62 563.795 562.606C376.948 699.796 432.599 889.404 432.599 889.404L148.595 834.195L134.196 859.615L134.337 859.531ZM-136.086 657.382C-194.329 640.839 -220.563 653.014 -230.679 659.496C-230.679 659.298 -230.622 659.073 -230.594 658.876C-230.932 658.087 -241.612 632.047 -243.556 593.719C-255.165 584.56 -333.866 524.082 -413.975 488.15L-449.113 550.404C-383.571 595.551 -296.981 650.111 -173.788 721.101L-136.086 657.382ZM122.897 826.755C89.7878 795.023 -10.6942 704.08 -110.246 666.09L-149.78 734.939C-149.78 734.939 -100.3 763.515 -57.2722 788.343C-35.688 800.8 -4.21338 785.751 19.0615 799.193C49.7471 815.313 110.161 848.455 110.161 848.455L122.869 826.755H122.897Z" fill="url(#paint0_linear_1488_5034)"/>
<defs>
<linearGradient id="paint0_linear_1488_5034" x1="-110.538" y1="466.782" x2="-434.293" y2="-75.5371" gradientUnits="userSpaceOnUse">
<stop stop-color="#3BD6FF" stop-opacity="0"/>
<stop offset="0.64031" stop-color="white"/>
</linearGradient>
</defs>
</svg>
